<svg width="221" height="1336" viewBox="0 0 221 1336" fill="none" xmlns="http://www.w3.org/2000/svg">
<path d="M123.776 30C186.634 72.1038 170.194 178.594 131.779 301.407C83.7608 454.924 -134.549 752.956 131.779 1013.93C318.852 1197.25 146.785 1297 146.785 1297" stroke="#2E2E2E" stroke-width="4" stroke-dasharray="8 8"/>
<path d="M136.184 1288.6C135.787 1288.57 135.395 1288.69 135.092 1288.95C134.789 1289.21 134.602 1289.58 134.57 1289.98L132.909 1310.94C132.876 1311.36 133.018 1311.77 133.3 1312.07C133.582 1312.38 133.98 1312.56 134.397 1312.56L155.428 1312.67C155.826 1312.67 156.208 1312.51 156.491 1312.23C156.773 1311.95 156.933 1311.57 156.935 1311.17L156.96 1306.35C156.962 1305.95 156.806 1305.57 156.526 1305.29C156.246 1305 155.865 1304.84 155.467 1304.84L146.996 1304.8L176.6 1277.59C176.893 1277.32 177.066 1276.94 177.083 1276.54C177.1 1276.15 176.958 1275.76 176.689 1275.47L173.424 1271.92C172.863 1271.31 171.914 1271.27 171.304 1271.83L141.701 1299.04L142.37 1290.59C142.402 1290.2 142.274 1289.8 142.016 1289.5C141.758 1289.2 141.39 1289.01 140.993 1288.98L136.184 1288.6Z" fill="white" stroke="#2E2E2E" stroke-width="3" stroke-miterlimit="10" stroke-linecap="round" stroke-linejoin="round"/>
<path d="M141.24 43.2402C149.105 35.3756 149.105 22.6244 141.24 14.7598C133.376 6.89514 120.624 6.89514 112.76 14.7598C104.895 22.6244 104.895 35.3756 112.76 43.2402C120.624 51.1049 133.376 51.1049 141.24 43.2402Z" fill="#FCEA2B"/>
<path d="M128.133 46.5842C127.221 47.4959 126.274 48.3487 125.305 49.1623C130.988 49.6006 136.829 47.6532 141.185 43.2969C149.081 35.401 149.106 22.6244 141.242 14.7596C141.107 14.6253 140.961 14.5116 140.823 14.3818C141.228 25.9748 137.001 37.7159 128.133 46.5842Z" fill="#F1B31C"/>
<path d="M127 49.1389C138.123 49.1389 147.139 40.1224 147.139 29C147.139 17.8776 138.123 8.86108 127 8.86108C115.878 8.86108 106.861 17.8776 106.861 29C106.861 40.1224 115.878 49.1389 127 49.1389Z" stroke="#2E2E2E" stroke-width="4" stroke-miterlimit="10" stroke-linecap="round" stroke-linejoin="round"/>
</svg>
