<svg width="267" height="197" viewBox="0 0 267 197" fill="none" xmlns="http://www.w3.org/2000/svg">
<rect x="2.93164" y="2" width="261.497" height="192.312" rx="17" fill="white" stroke="#2E2E2E" strokeWidth="4"/>
<path d="M16.9316 2H248.429C257.265 2 264.429 9.16344 264.429 18V34.3221H2.93164V16C2.93164 8.26801 9.19965 2 16.9316 2Z" fill="white" stroke="#2E2E2E" strokeWidth="4"/>
<circle cx="210.215" cy="19.0258" r="5.91849" fill="#69CF9C" stroke="#2E2E2E" strokeWidth="2"/>
<circle cx="229.243" cy="19.0258" r="5.91849" fill="#FDD400" stroke="#2E2E2E" strokeWidth="2"/>
<circle cx="247.403" cy="19.0258" r="5.91849" fill="#FB9191" stroke="#2E2E2E" strokeWidth="2"/>
<circle cx="64.4953" cy="106.804" r="31.5656" fill="#C4C4C4"/>
<rect x="21.5" y="57.5" width="81" height="112" fill="#FFA2A2" stroke="black" strokeWidth="3"/>
<path d="M42.3825 141.862C46.3689 155.44 60.6156 163.219 74.1934 159.226C87.7712 155.239 95.55 140.993 91.557 127.415C87.5706 113.837 73.3306 106.065 59.7527 110.051C46.1682 114.044 38.3961 128.284 42.3825 141.862Z" fill="black"/>
<path d="M42.3825 141.862C46.3689 155.44 60.6156 163.219 74.1934 159.226C87.7712 155.239 95.55 140.993 91.557 127.415C87.5706 113.837 73.3306 106.065 59.7527 110.051C46.1682 114.044 38.3961 128.284 42.3825 141.862Z" stroke="black" strokeWidth="2" stroke-miterlimit="10" strokeLinecap="round" strokeWidth="round"/>
<path d="M67.8593 129.669C68.9094 133.241 72.6483 135.281 76.22 134.231C79.7917 133.18 81.8317 129.441 80.7816 125.87C79.7315 122.298 75.9926 120.258 72.4209 121.308C68.8559 122.358 66.8092 126.104 67.8593 129.669Z" fill="black" stroke="black" strokeWidth="2" stroke-miterlimit="10" strokeLinecap="round" strokeWidth="round"/>
<path d="M67.8588 129.669C68.4541 131.702 70.5878 132.866 72.6211 132.271C74.6544 131.675 75.8182 129.542 75.223 127.508C74.6277 125.475 72.494 124.311 70.4607 124.907C68.4274 125.509 67.2635 127.635 67.8588 129.669Z" fill="black"/>
<path d="M50.6171 134.732C51.6672 138.304 55.4061 140.344 58.9778 139.294C62.5495 138.244 64.5895 134.505 63.5394 130.933C62.4893 127.361 58.7504 125.321 55.1787 126.371C51.6137 127.422 49.567 131.167 50.6171 134.732Z" fill="black" stroke="black" strokeWidth="2" stroke-miterlimit="10" strokeLinecap="round" strokeWidth="round"/>
<path d="M50.6166 134.732C51.2119 136.765 53.3456 137.929 55.3789 137.334C57.4122 136.739 58.576 134.605 57.9808 132.572C57.3855 130.538 55.2518 129.374 53.2185 129.97C51.1852 130.572 50.0214 132.705 50.6166 134.732Z" fill="black"/>
<path d="M61.4043 141.073C62.5213 144.865 66.4943 147.039 70.2867 145.922C74.0792 144.805 76.253 140.832 75.136 137.04" stroke="black" strokeWidth="2" stroke-miterlimit="10" strokeLinecap="round" strokeWidth="round"/>
<path d="M41.0446 139.856C45.031 153.433 59.2777 161.212 72.8555 157.219C86.4333 153.233 94.2122 138.986 90.2191 125.408C86.2327 111.83 71.9927 104.058 58.4149 108.045C44.8303 112.038 37.0582 126.278 41.0446 139.856Z" fill="#EFD552"/>
<path d="M41.0446 139.856C45.031 153.433 59.2777 161.212 72.8555 157.219C86.4333 153.233 94.2122 138.986 90.2191 125.408C86.2327 111.83 71.9927 104.058 58.4149 108.045C44.8303 112.038 37.0582 126.278 41.0446 139.856Z" stroke="black" strokeWidth="2" stroke-miterlimit="10" strokeLinecap="round" strokeWidth="round"/>
<path d="M66.5214 127.662C67.5715 131.234 71.3104 133.274 74.8821 132.224C78.4538 131.174 80.4938 127.435 79.4437 123.863C78.3936 120.291 74.6547 118.251 71.083 119.302C67.518 120.352 65.4713 124.097 66.5214 127.662Z" fill="white" stroke="black" strokeWidth="2" stroke-miterlimit="10" strokeLinecap="round" strokeWidth="round"/>
<path d="M66.5209 127.662C67.1162 129.696 69.2499 130.859 71.2832 130.264C73.3165 129.669 74.4803 127.535 73.8851 125.502C73.2898 123.469 71.1561 122.305 69.1228 122.9C67.0895 123.502 65.9256 125.629 66.5209 127.662Z" fill="black"/>
<path d="M49.2792 132.726C50.3293 136.297 54.0682 138.337 57.6399 137.287C61.2116 136.237 63.2517 132.498 62.2016 128.926C61.1514 125.355 57.4125 123.315 53.8408 124.365C50.2758 125.415 48.2291 129.161 49.2792 132.726Z" fill="white" stroke="black" strokeWidth="2" stroke-miterlimit="10" strokeLinecap="round" strokeWidth="round"/>
<path d="M49.2787 132.726C49.874 134.759 52.0077 135.923 54.041 135.327C56.0743 134.732 57.2382 132.599 56.6429 130.565C56.0476 128.532 53.9139 127.368 51.8806 127.963C49.8473 128.565 48.6835 130.699 49.2787 132.726Z" fill="black"/>
<path d="M60.0684 139.066C61.1854 142.859 65.1584 145.033 68.9508 143.916C72.7432 142.799 74.917 138.826 73.8 135.033" stroke="black" strokeWidth="2" stroke-miterlimit="10" strokeLinecap="round" strokeWidth="round"/>
<line x1="118" y1="83" x2="195.833" y2="83" stroke="#2E2E2E" strokeWidth="4"/>
<line x1="117.682" y1="95.3181" x2="236.161" y2="95.3181" stroke="#2E2E2E" strokeWidth="4"/>
<line x1="117.682" y1="107.425" x2="236.161" y2="107.425" stroke="#2E2E2E" strokeWidth="4"/>
<line x1="117.682" y1="118.668" x2="236.161" y2="118.668" stroke="#2E2E2E" strokeWidth="4"/>
<line x1="117.682" y1="130.775" x2="195.515" y2="130.775" stroke="#2E2E2E" strokeWidth="4"/>
<rect x="10.0671" y="62.6144" width="141.223" height="44.0964" rx="22.0482" transform="rotate(-19.2446 10.0671 62.6144)" fill="#B4FAFF" stroke="#2E2E2E" strokeWidth="4.81591"/>
<rect x="12.0671" y="58.6144" width="141.223" height="44.0964" rx="22.0482" transform="rotate(-19.2446 12.0671 58.6144)" fill="#B4FAFF" stroke="#2E2E2E" strokeWidth="4.81591"/>
<path d="M45.9467 64.1305L47.2146 75.7306L44.0102 76.8768L39.7449 70.3383L40.579 78.1041L37.3746 79.2503L30.9977 69.4775L33.8092 68.4719L37.9528 75.7189L37.0589 67.3095L39.8855 66.2985L44.5279 73.3671L43.1504 65.1307L45.9467 64.1305ZM56.5391 60.3417L60.3615 71.0281L57.7617 71.9581L56.1668 67.4991L52.1159 68.948L53.7109 73.407L51.1262 74.3315L47.3037 63.6451L49.8884 62.7206L51.3698 66.8621L55.4207 65.4132L53.9393 61.2716L56.5391 60.3417ZM63.3347 57.7235C64.3423 57.3631 65.339 57.2737 66.3246 57.4553C67.3167 57.6233 68.1991 58.0408 68.9719 58.7077C69.7411 59.3646 70.3131 60.2171 70.6879 61.2651C71.0628 62.3131 71.158 63.3417 70.9734 64.3511C70.799 65.3569 70.3833 66.2444 69.7264 67.0135C69.076 67.769 68.252 68.3252 67.2544 68.682C66.2568 69.0388 65.2619 69.1333 64.2698 68.9653C63.2842 68.7836 62.4 68.3611 61.6171 67.6978C60.8443 67.0308 60.2705 66.1733 59.8957 65.1253C59.5208 64.0773 59.4224 63.0555 59.6005 62.0598C59.785 61.0504 60.2025 60.168 60.8529 59.4125C61.5098 58.6433 62.337 58.0803 63.3347 57.7235ZM64.1943 60.1268C63.3478 60.4296 62.7718 60.9482 62.4662 61.6826C62.1671 62.4034 62.1869 63.2374 62.5257 64.1846C62.8609 65.1217 63.3745 65.7791 64.0665 66.1567C64.7686 66.5307 65.5429 66.5663 66.3893 66.2636C67.2257 65.9644 67.7967 65.4476 68.1023 64.7132C68.4079 63.9787 68.3931 63.1429 68.0579 62.2058C67.7227 61.2687 67.204 60.6131 66.502 60.2391C65.81 59.8615 65.0407 59.824 64.1943 60.1268ZM87.794 49.1622L89.0619 60.7624L85.8575 61.9086L81.5922 55.37L82.4263 63.1359L79.2219 64.282L72.845 54.5093L75.6565 53.5037L79.8001 60.7507L78.9062 52.3413L81.7328 51.3303L86.3752 58.3988L84.9977 50.1624L87.794 49.1622ZM92.471 49.808L93.2712 52.045L96.8837 50.7529L97.5812 52.7027L93.9686 53.9949L94.8174 56.368L98.8834 54.9136L99.6241 56.9844L92.9734 59.3633L89.151 48.6768L95.8017 46.298L96.537 48.3536L92.471 49.808ZM110.041 51.0591L106.035 52.4919L106.068 54.6796L103.347 55.6528L103.467 43.6416L106.444 42.5765L114.154 51.7871L111.403 52.7711L110.041 51.0591ZM108.673 49.332L105.937 45.8779L105.998 50.289L108.673 49.332ZM120.646 49.4652L116.89 46.2566L116.3 46.4675L117.744 50.5032L115.159 51.4277L111.337 40.7413L115.75 39.1626C116.597 38.8598 117.365 38.75 118.054 38.8332C118.742 38.9164 119.325 39.1627 119.801 39.5721C120.274 39.9714 120.627 40.4985 120.861 41.1535C121.139 41.9294 121.158 42.667 120.919 43.3661C120.691 44.0616 120.204 44.6561 119.46 45.1496L123.503 48.4434L120.646 49.4652ZM115.668 44.699L117.27 44.1259C117.784 43.9421 118.122 43.6961 118.285 43.3879C118.444 43.0696 118.444 42.6888 118.285 42.2454C118.134 41.8222 117.889 41.5347 117.55 41.383C117.222 41.2276 116.806 41.2401 116.302 41.4203L114.7 41.9934L115.668 44.699ZM124.266 38.4353L125.066 40.6723L128.679 39.3802L129.376 41.3301L125.764 42.6222L126.613 44.9953L130.679 43.5409L131.419 45.6117L124.769 47.9906L120.946 37.3041L127.597 34.9253L128.332 36.9809L124.266 38.4353ZM131.933 32.5048C133.001 32.1228 133.952 32.0953 134.785 32.4225C135.614 32.7395 136.213 33.412 136.58 34.4398C136.923 35.3971 136.879 36.2596 136.449 37.0272C136.029 37.7912 135.303 38.3689 134.273 38.7603L134.754 40.1056L132.32 40.976L131.244 37.9681L132.257 37.6059C132.983 37.3463 133.511 37.0437 133.842 36.698C134.169 36.3422 134.237 35.8973 134.046 35.3632C133.924 35.0206 133.733 34.7878 133.473 34.6648C133.213 34.5419 132.922 34.5381 132.599 34.6534C132.236 34.7831 131.989 34.9967 131.856 35.2941C131.731 35.5778 131.727 35.8859 131.846 36.2184L129.413 37.0889C129.176 36.4915 129.106 35.8973 129.201 35.3062C129.303 34.7014 129.586 34.157 130.049 33.673C130.509 33.179 131.137 32.7896 131.933 32.5048ZM135.333 41.2964L136.258 43.8811L133.567 44.8434L132.643 42.2587L135.333 41.2964Z" fill="#2E2E2E"/>
</svg>
