<svg width="44" height="40" viewBox="0 0 44 40" fill="none" xmlns="http://www.w3.org/2000/svg">
<path d="M2 17.5H42M30 8V5C30 4.20435 29.6629 3.44129 29.0627 2.87868C28.4626 2.31607 27.6487 2 26.8 2H17.2C16.3513 2 15.5374 2.31607 14.9373 2.87868C14.3371 3.44129 14 4.20435 14 5V8M3.66667 8H40.3333C41.2538 8 42 8.74619 42 9.66667V36.3333C42 37.2538 41.2538 38 40.3333 38H3.66667C2.74619 38 2 37.2538 2 36.3333V9.66667C2 8.74619 2.74619 8 3.66667 8Z" stroke="#2E2E2E" strokeWidth="3" strokeLinecap="round" strokeWidth="round"/>
</svg>
