<svg width="42" height="42" viewBox="0 0 42 42" fill="none" xmlns="http://www.w3.org/2000/svg">
<path d="M7.00077 16.4051L6.99902 35.0539L25.467 35.0507L34.8527 28.0226C34.8485 27.9941 35.0008 25.7205 35.0008 25.7205L34.999 16.3872L7.00077 16.4051Z" fill="white"/>
<path d="M6.67578 16.5038L34.9985 16.387L35.0003 7.0715C35.0003 7.0715 31.1876 6.48828 31.51 6.48828H29.4351L29.4658 9.85528C30.4733 10.1214 30.7202 11.656 30.7202 11.6563C30.7071 12.9349 29.1579 13.132 29.1506 13.1306C28.0727 12.9097 27.6988 12.3823 27.7108 11.496C27.7192 10.8729 27.7376 10.7204 28.1825 10.2838C28.4813 9.99102 28.5522 9.92884 28.9471 9.82868L28.9308 6.48828H26.8661C27.0184 6.48828 14.8479 6.48828 15.1704 6.48828H13.0342L13.0756 9.82868C14.0831 10.0948 14.4129 10.3262 14.4028 11.4146C14.3908 12.6938 12.8243 13.3286 12.8169 13.3286C11.5306 13.3161 11.0717 12.7232 11.0836 11.4369C11.0893 10.8137 11.595 10.3497 12.0399 9.91309C12.3387 9.62031 12.4476 9.43359 12.8424 9.33343L12.7027 6.48828H10.5191C10.644 6.48828 7.00029 7.0715 7.00029 7.0715L6.67578 16.5038Z" fill="#EA5A47"/>
<path d="M34.9982 28.0225H25.164C25.164 28.0225 24.6397 31.5832 24.5977 31.3023V34.4671L25.4662 35.0506L34.9982 28.0225Z" fill="#D0CFCE"/>
<path d="M14.5842 11.5951C14.5935 10.6286 13.8175 9.8376 12.851 9.82832C11.8845 9.81904 11.0935 10.595 11.0842 11.5615C11.0749 12.528 11.8509 13.319 12.8174 13.3283C13.7839 13.3376 14.5749 12.5616 14.5842 11.5951Z" stroke="#2E2E2E" stroke-width="2" stroke-miterlimit="10" stroke-linecap="round" stroke-linejoin="round"/>
<path d="M15.1699 7.07129H26.8658" stroke="#2E2E2E" stroke-width="2" stroke-miterlimit="10" stroke-linecap="round" stroke-linejoin="round"/>
<path d="M31.5095 7.07129H35V16.4046H7V7.07129H10.5185" stroke="#2E2E2E" stroke-width="2" stroke-miterlimit="10" stroke-linecap="round" stroke-linejoin="round"/>
<path d="M12.8418 5.06836V11.0821" stroke="#2E2E2E" stroke-width="2" stroke-miterlimit="10" stroke-linecap="round" stroke-linejoin="round"/>
<path d="M30.9182 11.5946C30.9275 10.6281 30.1515 9.83711 29.185 9.82783C28.2185 9.81856 27.4274 10.5945 27.4182 11.561C27.4089 12.5275 28.1849 13.3186 29.1514 13.3278C30.1179 13.3371 30.9089 12.5611 30.9182 11.5946Z" stroke="#2E2E2E" stroke-width="2" stroke-miterlimit="10" stroke-linecap="round" stroke-linejoin="round"/>
<path d="M29.1758 5.06836V11.0821" stroke="#2E2E2E" stroke-width="2" stroke-miterlimit="10" stroke-linecap="round" stroke-linejoin="round"/>
<path d="M20.0286 22.2204C20.3347 20.7245 21.6582 19.5991 23.2447 19.5991C24.1512 19.5991 24.9719 19.9666 25.566 20.5607C26.4902 21.4848 26.4048 23.0204 25.5378 23.9982L19.9619 30.2864H22.7386" stroke="#2E2E2E" stroke-width="2" stroke-miterlimit="10" stroke-linecap="round" stroke-linejoin="round"/>
<path d="M13.5781 21.8157L16.5368 19.5991V30.2864" stroke="#2E2E2E" stroke-width="2" stroke-miterlimit="10" stroke-linecap="round" stroke-linejoin="round"/>
<path d="M6.99805 16.3872V35.0539L25.466 35.0507L34.9981 28.0226V16.3872" stroke="#2E2E2E" stroke-width="2" stroke-miterlimit="10" stroke-linecap="round" stroke-linejoin="round"/>
<path d="M34.8519 28.0225H25.1641V31.2187" stroke="#2E2E2E" stroke-width="2" stroke-miterlimit="10" stroke-linecap="round" stroke-linejoin="round"/>
</svg>
