<svg width="44" height="44" viewBox="0 0 44 44" fill="none" xmlns="http://www.w3.org/2000/svg">
<path d="M10.4443 31.014C8.49852 28.525 7.33496 25.3973 7.33496 22.0002C7.33496 13.9152 13.9166 7.3335 22.0016 7.3335C30.0866 7.3335 36.6683 13.9152 36.6683 22.0002C36.6683 30.0852 30.0866 36.6668 22.0016 36.6668C20.8069 36.6668 19.6458 36.5198 18.533 36.2489C14.9158 35.3438 12.2202 33.5961 10.4419 31.0135L10.4443 31.014Z" fill="white"/>
<path d="M14.3495 36.6487C16.037 36.6487 17.4051 35.2807 17.4051 33.5932C17.4051 31.9056 16.037 30.5376 14.3495 30.5376C12.662 30.5376 11.2939 31.9056 11.2939 33.5932C11.2939 35.2807 12.662 36.6487 14.3495 36.6487Z" fill="white"/>
<path d="M9.65582 39.9911C8.81205 39.9911 8.12804 39.3071 8.12804 38.4633C8.12804 37.6196 8.81205 36.9355 9.65582 36.9355C10.4996 36.9355 11.1836 37.6196 11.1836 38.4633C11.1836 39.3071 10.4996 39.9911 9.65582 39.9911Z" fill="white"/>
<path d="M19.2745 35.7866C20.1557 35.9613 21.065 36.055 21.997 36.055C29.7459 36.055 36.0525 29.7483 36.0525 21.9994C36.0525 14.2505 29.7459 7.94385 21.997 7.94385C14.2481 7.94385 7.94141 14.2505 7.94141 21.9994C7.94141 25.0018 8.88985 27.7848 10.5001 30.0722" stroke="#2E2E2E" stroke-width="2" stroke-miterlimit="10" stroke-linecap="round"/>
<path d="M16.3716 23.2223C17.0466 23.2223 17.5939 22.6751 17.5939 22.0001C17.5939 21.325 17.0466 20.7778 16.3716 20.7778C15.6966 20.7778 15.1494 21.325 15.1494 22.0001C15.1494 22.6751 15.6966 23.2223 16.3716 23.2223Z" fill="#2E2E2E"/>
<path d="M21.9996 23.2223C22.6746 23.2223 23.2218 22.6751 23.2218 22.0001C23.2218 21.325 22.6746 20.7778 21.9996 20.7778C21.3246 20.7778 20.7773 21.325 20.7773 22.0001C20.7773 22.6751 21.3246 23.2223 21.9996 23.2223Z" fill="#2E2E2E"/>
<path d="M27.6285 23.2223C28.3035 23.2223 28.8507 22.6751 28.8507 22.0001C28.8507 21.325 28.3035 20.7778 27.6285 20.7778C26.9535 20.7778 26.4062 21.325 26.4062 22.0001C26.4062 22.6751 26.9535 23.2223 27.6285 23.2223Z" fill="#2E2E2E"/>
<path d="M9.93288 39.9406C9.10337 40.0949 8.30582 39.5475 8.15149 38.718C7.99717 37.8885 8.54451 37.091 9.37402 36.9367C10.2035 36.7823 11.0011 37.3297 11.1554 38.1592C11.3097 38.9887 10.7624 39.7862 9.93288 39.9406Z" stroke="#2E2E2E" stroke-width="2" stroke-miterlimit="10"/>
<path d="M15.1844 36.2478C13.5317 36.5553 11.9427 35.4647 11.6352 33.812C11.3277 32.1593 12.4183 30.5703 14.071 30.2628C15.7237 29.9553 17.3127 31.0458 17.6202 32.6986C17.9277 34.3513 16.8372 35.9403 15.1844 36.2478Z" stroke="#2E2E2E" stroke-width="2" stroke-miterlimit="10"/>
</svg>
