<svg width="23" height="22" viewBox="0 0 23 22" fill="none" xmlns="http://www.w3.org/2000/svg">
<path d="M15.7482 1.86267C16.975 1.8662 18.1505 2.33706 19.018 3.17241C19.8855 4.00777 20.3744 5.13974 20.3781 6.3211L20.3781 15.237C20.3744 16.4184 19.8855 17.5503 19.018 18.3857C18.1505 19.221 16.975 19.6919 15.7482 19.6954L6.48938 19.6954C5.26258 19.6919 4.08707 19.221 3.21959 18.3857C2.35211 17.5503 1.86314 16.4184 1.85948 15.237L1.85948 6.3211C1.86314 5.13974 2.35211 4.00777 3.21959 3.17241C4.08707 2.33706 5.26258 1.8662 6.48938 1.86267L15.7482 1.86267ZM15.7482 0.0795898L6.48938 0.0795898C2.92444 0.0795898 0.0078125 2.8882 0.0078125 6.3211L0.0078125 15.237C0.0078125 18.6699 2.92444 21.4785 6.48938 21.4785L15.7482 21.4785C19.3131 21.4785 22.2298 18.6699 22.2298 15.237L22.2298 6.3211C22.2298 2.8882 19.3131 0.0795898 15.7482 0.0795898Z" fill="#2E2E2E"/>
<path d="M17.1372 6.32135C16.8626 6.32135 16.594 6.24291 16.3656 6.09595C16.1372 5.94899 15.9592 5.74011 15.8541 5.49573C15.749 5.25135 15.7215 4.98243 15.7751 4.723C15.8287 4.46356 15.9609 4.22525 16.1552 4.03821C16.3494 3.85117 16.5969 3.72379 16.8663 3.67218C17.1357 3.62058 17.415 3.64706 17.6687 3.74829C17.9225 3.84952 18.1394 4.02094 18.2921 4.24088C18.4447 4.46082 18.5261 4.7194 18.5261 4.98392C18.5265 5.15966 18.4909 5.33374 18.4212 5.49618C18.3515 5.65861 18.2492 5.8062 18.1202 5.93047C17.9912 6.05474 17.8379 6.15324 17.6692 6.22031C17.5005 6.28739 17.3197 6.32173 17.1372 6.32135ZM11.119 7.21265C11.8515 7.21265 12.5676 7.42183 13.1767 7.81374C13.7858 8.20565 14.2605 8.76268 14.5409 9.4144C14.8212 10.0661 14.8945 10.7833 14.7516 11.4751C14.6087 12.167 14.256 12.8025 13.738 13.3013C13.22 13.8001 12.56 14.1398 11.8415 14.2774C11.1231 14.415 10.3784 14.3444 9.70157 14.0745C9.02479 13.8045 8.44633 13.3474 8.03935 12.7608C7.63237 12.1743 7.41514 11.4847 7.41514 10.7793C7.41619 9.83368 7.80675 8.92707 8.50113 8.25842C9.1955 7.58976 10.137 7.21367 11.119 7.21265ZM11.119 5.42957C10.0202 5.42957 8.9461 5.74333 8.0325 6.33116C7.11891 6.919 6.40685 7.75451 5.98637 8.73205C5.56588 9.70958 5.45587 10.7852 5.67023 11.823C5.88459 12.8607 6.41369 13.814 7.19064 14.5621C7.96759 15.3103 8.95749 15.8198 10.0351 16.0262C11.1128 16.2327 12.2298 16.1267 13.245 15.7218C14.2601 15.3169 15.1277 14.6312 15.7382 13.7515C16.3486 12.8717 16.6745 11.8374 16.6745 10.7793C16.6745 9.36046 16.0891 7.99974 15.0473 6.99647C14.0054 5.9932 12.5924 5.42957 11.119 5.42957Z" fill="#2E2E2E"/>
</svg>
