<svg width="41" height="40" viewBox="0 0 41 40" fill="none" xmlns="http://www.w3.org/2000/svg">
<path d="M19.656 1.35056C19.836 0.422558 21.164 0.422559 21.344 1.35056L23.2011 10.9235C23.3247 11.5605 24.0823 11.8363 24.5864 11.4278L32.1625 5.28817C32.8969 4.693 33.9142 5.54658 33.4556 6.37319L28.7248 14.9003C28.41 15.4676 28.8132 16.1659 29.4619 16.177L39.212 16.3436C40.1571 16.3597 40.3877 17.6675 39.5051 18.0059L30.4 21.4972C29.7942 21.7295 29.6542 22.5235 30.144 22.949L37.5059 29.3438C38.2196 29.9637 37.5556 31.1137 36.6619 30.8056L27.4429 27.6275C26.8295 27.416 26.2118 27.9343 26.3136 28.5751L27.8426 38.2059C27.9908 39.1395 26.743 39.5937 26.2564 38.7833L21.2371 30.4228C20.9031 29.8665 20.0969 29.8665 19.7629 30.4228L14.7436 38.7833C14.257 39.5937 13.0092 39.1395 13.1574 38.2059L14.6864 28.5751C14.7882 27.9343 14.1705 27.416 13.5571 27.6275L4.3381 30.8056C3.44441 31.1137 2.78044 29.9637 3.4941 29.3438L10.856 22.949C11.3458 22.5235 11.2058 21.7295 10.6 21.4972L1.49492 18.0059C0.612283 17.6675 0.842878 16.3597 1.78804 16.3436L11.5381 16.177C12.1868 16.1659 12.59 15.4676 12.2752 14.9003L7.54444 6.37319C7.08584 5.54658 8.1031 4.693 8.83752 5.28817L16.4136 11.4278C16.9177 11.8363 17.6753 11.5605 17.7989 10.9235L19.656 1.35056Z" fill="black"/>
</svg>
