<svg width="42" height="36" viewBox="0 0 42 36" fill="none" xmlns="http://www.w3.org/2000/svg">
<path d="M9.625 24.6262V31.9996C9.625 32.4306 9.7962 32.8439 10.1009 33.1487C10.4057 33.4534 10.819 33.6246 11.25 33.6246H17.75C18.181 33.6246 18.5943 33.4534 18.899 33.1487C19.2038 32.8439 19.375 32.4306 19.375 31.9996V7.2793M40.5 3.29761V31.4507C40.5003 31.7024 40.4421 31.9508 40.33 32.1761C40.2179 32.4015 40.055 32.5977 39.8541 32.7494C39.6532 32.9011 39.4198 33.004 39.1723 33.05C38.9249 33.0961 38.6701 33.084 38.4281 33.0148L2.67813 22.5945C2.33841 22.4973 2.03962 22.2921 1.82703 22.0098C1.61443 21.7276 1.49963 21.3838 1.5 21.0304V13.7179C1.49963 13.3646 1.61443 13.0208 1.82703 12.7385C2.03962 12.4563 2.33841 12.251 2.67813 12.1539L38.4281 1.73355C38.6701 1.66433 38.9249 1.65228 39.1723 1.69834C39.4198 1.74439 39.6532 1.8473 39.8541 1.99896C40.055 2.15061 40.2179 2.34685 40.33 2.57222C40.4421 2.79759 40.5003 3.04591 40.5 3.29761Z" stroke="#2E2E2E" strokeWidth="3" strokeLinecap="round" strokeWidth="round"/>
</svg>
