<svg width="23" height="23" viewBox="0 0 23 23" fill="none" xmlns="http://www.w3.org/2000/svg">
<path d="M11.5565 0C5.32184 0 0.266602 5.05298 0.266602 11.2848C0.266602 15.9045 3.04875 19.8744 7.0254 21.6225C6.99516 20.8366 7.02036 19.8895 7.22196 19.0331C7.43869 18.1162 8.67352 12.8818 8.67352 12.8818C8.67352 12.8818 8.31063 12.1614 8.31063 11.0984C8.31063 9.42585 9.27833 8.17646 10.488 8.17646C11.5161 8.17646 12.0101 8.94725 12.0101 9.86918C12.0101 10.9019 11.3498 12.4435 11.0121 13.8743C10.7299 15.0733 11.6119 16.0456 12.7963 16.0456C14.9333 16.0456 16.3748 13.3 16.3748 10.0455C16.3748 7.57191 14.7065 5.72302 11.6774 5.72302C8.25519 5.72302 6.11818 8.27722 6.11818 11.1286C6.11818 12.111 6.4105 12.8063 6.86411 13.3403C7.07076 13.5871 7.101 13.6879 7.0254 13.97C6.96996 14.1766 6.84899 14.6753 6.79355 14.8768C6.71795 15.164 6.48611 15.2647 6.22906 15.1589C4.6515 14.5141 3.91565 12.7911 3.91565 10.8465C3.91565 7.64245 6.62219 3.79855 11.9849 3.79855C16.2942 3.79855 19.1318 6.91699 19.1318 10.2621C19.1318 14.6904 16.6671 17.9953 13.0383 17.9953C11.8186 17.9953 10.6744 17.3353 10.2813 16.5897C10.2813 16.5897 9.6261 19.1892 9.48498 19.693C9.24809 20.5646 8.77936 21.4311 8.35095 22.1112C9.39016 22.4176 10.4679 22.5737 11.5514 22.5747C17.786 22.5747 22.8413 17.5217 22.8413 11.2899C22.8413 5.05802 17.7911 0 11.5565 0Z" fill="#2E2E2E"/>
</svg>
