<svg width="24" height="21" viewBox="0 0 24 21" fill="none" xmlns="http://www.w3.org/2000/svg">
<path d="M23.9997 3.23349C23.1066 3.62155 22.1616 3.87722 21.1946 3.99241C22.2108 3.39736 22.975 2.45203 23.3439 1.33371C22.3832 1.8955 21.3338 2.28969 20.2408 2.49937C19.7805 2.017 19.227 1.63326 18.6138 1.37148C18.0006 1.1097 17.3406 0.975339 16.6739 0.976571C13.9745 0.976571 11.79 3.12932 11.79 5.78306C11.7881 6.15218 11.8304 6.52021 11.916 6.87928C9.98034 6.78853 8.08494 6.29475 6.35106 5.42952C4.61718 4.56429 3.083 3.34666 1.84666 1.85454C1.41292 2.58574 1.18354 3.42001 1.18248 4.27018C1.18248 5.93683 2.05201 7.41002 3.36499 8.27311C2.58709 8.25465 1.82513 8.04876 1.14379 7.67292V7.73244C1.14379 10.0638 2.83028 12.0032 5.06239 12.4447C4.64265 12.5566 4.21011 12.6133 3.7757 12.6133C3.46746 12.6139 3.15992 12.584 2.85756 12.524C3.47809 14.4337 5.28412 15.8226 7.42348 15.8623C5.6851 17.202 3.55081 17.9261 1.35609 17.9208C0.96652 17.9202 0.577313 17.897 0.19043 17.8514C2.42313 19.2771 5.01847 20.0312 7.66752 20.024C16.6634 20.024 21.5781 12.6977 21.5781 6.34357C21.5781 6.13524 21.5726 5.92691 21.5627 5.72354C22.5166 5.045 23.3418 4.20179 23.9997 3.23349Z" fill="#2E2E2E"/>
</svg>
