<svg width="230" height="117" viewBox="0 0 230 117" fill="none" xmlns="http://www.w3.org/2000/svg">
<path d="M103.267 28.9995L115.061 33.4654L129.147 25.3559L135.944 31.4424L153.799 24.1041L155.171 31.4287L175.674 25.3229L171.536 33.4253L193.397 28.9355L184.008 37.3067L205.855 34.715L191.806 42.8289L212.265 42.2982L194.438 49.6451L212.224 51.2087L191.739 57.327L205.735 60.8866L183.879 65.3917L193.205 70.7238L171.352 73.3327L175.422 80.1022L154.945 80.651L153.503 88.4325L135.689 86.8867L128.826 95.1912L114.793 91.6479L102.94 99.9538L93.5712 94.6357L77.4734 102.421L73.3565 95.6621L54.0249 102.438L55.419 94.6627L34.0685 100.003L40.886 91.7004L18.8579 95.2693L30.6705 86.9612L9.34905 88.5348L25.4144 80.7429L6.1393 80.2224L25.448 73.4363L9.43036 70.8543L30.7692 65.5004L19.0154 61.0192L41.0436 57.4339L34.2923 51.3351L55.6256 49.7437L54.301 42.4104L73.5991 42.9129L77.7843 34.8059L93.8346 37.3707L103.267 28.9995Z" fill="#2E2E2E"/>
<path d="M113.267 18.9995L125.061 23.4654L139.147 15.3559L145.944 21.4424L163.799 14.1041L165.171 21.4287L185.674 15.3229L181.536 23.4253L203.397 18.9355L194.008 27.3067L215.855 24.715L201.806 32.8289L222.265 32.2982L204.438 39.6451L222.224 41.2087L201.739 47.327L215.735 50.8866L193.879 55.3917L203.205 60.7238L181.352 63.3327L185.422 70.1022L164.945 70.651L163.503 78.4325L145.689 76.8867L138.826 85.1912L124.793 81.6479L112.94 89.9538L103.571 84.6357L87.4734 92.4209L83.3565 85.6621L64.0249 92.4375L65.419 84.6627L44.0685 90.0027L50.886 81.7004L28.8579 85.2693L40.6705 76.9612L19.3491 78.5348L35.4144 70.7429L16.1393 70.2224L35.448 63.4363L19.4304 60.8543L40.7692 55.5004L29.0154 51.0192L51.0436 47.4339L44.2923 41.3351L65.6256 39.7437L64.301 32.4104L83.5991 32.9129L87.7843 24.8059L103.835 27.3707L113.267 18.9995Z" fill="#F1B31C"/>
<path d="M78.6423 65.1087L71.3107 66.5933L70.5799 69.3319L66.6174 70.1343L70.8361 55.5897L74.7987 54.7873L84.3435 66.5448L80.381 67.3472L78.6423 65.1087ZM72.0642 63.7704L76.8691 62.7974L73.4955 58.4389L72.0642 63.7704ZM92.0454 50.9461C93.3344 50.6851 94.5534 50.5545 95.7025 50.5543C96.8567 50.5464 97.9313 50.6211 98.9263 50.7783L99.5776 53.9943C99.1725 53.8638 98.7209 53.7493 98.2227 53.6509C97.7309 53.5512 97.2021 53.4823 96.6364 53.444C96.0707 53.4058 95.4725 53.4041 94.8419 53.4388C94.2112 53.4735 93.5577 53.5593 92.8813 53.6963C92.039 53.8668 91.3175 54.076 90.7167 54.3239C90.1159 54.5718 89.6129 54.843 89.2076 55.1377C88.8023 55.4323 88.4838 55.7459 88.2522 56.0784C88.0194 56.4045 87.851 56.7376 87.7471 57.0774C87.6432 57.4173 87.5917 57.7532 87.5925 58.0852C87.5933 58.4172 87.624 58.7331 87.6848 59.033C87.7377 59.2946 87.8208 59.5734 87.9338 59.8694C88.0533 60.164 88.2174 60.4496 88.4262 60.7262C88.6413 61.0015 88.9113 61.2523 89.2362 61.4788C89.561 61.7053 89.9592 61.8838 90.4307 62.0141C90.9085 62.1432 91.4641 62.2134 92.0974 62.2246C92.7294 62.2295 93.4634 62.1473 94.2993 61.978C94.7204 61.8928 95.0847 61.8057 95.3922 61.7169C95.6997 61.628 95.9766 61.5354 96.2228 61.4391C96.4753 61.3414 96.7068 61.2381 96.9172 61.1291C97.134 61.0187 97.3566 60.9039 97.5848 60.7846L97.2631 59.1958L93.2814 60.0021L92.698 57.1211L100.231 55.5958L101.591 62.3149C101.151 62.57 100.651 62.824 100.092 63.0769C99.5367 63.3221 98.9557 63.5527 98.3485 63.7686C97.7489 63.9897 97.1416 64.189 96.5266 64.3667C95.9116 64.5444 95.3266 64.6894 94.7714 64.8018C93.91 64.9763 93.0721 65.0862 92.2576 65.1315C91.4431 65.1769 90.6674 65.1513 89.9304 65.0548C89.1986 64.9505 88.5112 64.7709 87.8684 64.5158C87.2319 64.2594 86.661 63.9167 86.1556 63.4876C85.6566 63.0572 85.2289 62.5361 84.8725 61.924C84.5212 61.3044 84.2622 60.583 84.0955 59.7598C83.9301 58.9431 83.8951 58.1796 83.9904 57.4695C84.0857 56.7594 84.2859 56.1077 84.5909 55.5145C84.9023 54.9201 85.3077 54.3797 85.807 53.8933C86.3127 53.4056 86.8863 52.9739 87.5276 52.5983C88.174 52.215 88.878 51.8864 89.6396 51.6127C90.4076 51.3376 91.2095 51.1154 92.0454 50.9461ZM105.563 62.2479L102.9 49.0968L116.214 46.4008L116.782 49.2052L107.115 51.1628L107.555 53.3355L116.724 51.4787L117.292 54.2831L108.123 56.1399L108.642 58.705L118.443 56.7203L119.011 59.5248L105.563 62.2479ZM134.871 56.3132L124.168 49.0745L125.998 58.1099L122.447 58.8289L119.784 45.6779L123.641 44.8968L134.361 52.1719L132.524 43.0982L136.055 42.383L138.718 55.5341L134.871 56.3132ZM157.143 50.8666C156.722 51.151 156.295 51.417 155.86 51.6645C155.425 51.9119 154.97 52.1403 154.494 52.3495C154.02 52.5652 153.511 52.7579 152.967 52.9278C152.43 53.0963 151.845 53.2445 151.214 53.3725C149.874 53.6438 148.61 53.7503 147.422 53.6918C146.241 53.6321 145.184 53.3978 144.251 52.9889C143.323 52.5723 142.545 51.9792 141.918 51.2095C141.289 50.4335 140.858 49.468 140.624 48.313C140.39 47.1581 140.412 46.104 140.691 45.1509C140.968 44.1913 141.454 43.3423 142.148 42.604C142.847 41.8579 143.729 41.2276 144.794 40.7131C145.866 40.1972 147.071 39.8036 148.411 39.5323C149.043 39.4044 149.639 39.3136 150.199 39.2599C150.766 39.2049 151.31 39.1844 151.831 39.1985C152.351 39.2062 152.859 39.2394 153.356 39.2983C153.852 39.3571 154.35 39.4357 154.848 39.5341L155.496 42.7309C155.092 42.6067 154.669 42.4897 154.229 42.3796C153.787 42.2632 153.308 42.1776 152.792 42.1226C152.274 42.0613 151.716 42.0416 151.116 42.0634C150.514 42.0789 149.85 42.1603 149.123 42.3076C148.006 42.5337 147.101 42.8366 146.407 43.2162C145.72 43.5945 145.195 44.0197 144.832 44.4917C144.469 44.9637 144.249 45.4666 144.171 46.0005C144.092 46.528 144.106 47.0566 144.213 47.5862C144.284 47.9372 144.393 48.2772 144.539 48.6062C144.684 48.9289 144.877 49.2253 145.118 49.4954C145.357 49.7591 145.646 49.9895 145.985 50.1866C146.324 50.3837 146.726 50.5315 147.191 50.63C147.656 50.7284 148.183 50.7744 148.773 50.7679C149.368 50.7537 150.039 50.671 150.786 50.5198C151.513 50.3725 152.158 50.1954 152.721 49.9885C153.282 49.7752 153.789 49.5429 154.243 49.2916C154.697 49.0402 155.106 48.7781 155.469 48.5053C155.831 48.2261 156.173 47.9476 156.496 47.6697L157.143 50.8666ZM167.609 44.0942L168.696 49.4637L165.155 50.1809L164.067 44.8113L156.117 38.3206L160.099 37.5143L165.344 41.9623L168.426 35.8281L172.407 35.0219L167.609 44.0942Z" fill="#2E2E2E"/>
</svg>
