<svg width="180" height="180" viewBox="0 0 180 180" fill="none" xmlns="http://www.w3.org/2000/svg">
<g clip-path="url(#clip0_1_5850)">
<path d="M107.416 32.162L37.6416 60.9573L73.352 147.488L143.126 118.693L107.416 32.162Z" fill="white"/>
<path d="M100.123 94.7033L111.821 66.5658L130.196 74.2051L118.598 102.104" fill="#F4AA41"/>
<path d="M101.415 107.784L100.761 96.3959L116.841 103.081L108.306 110.649" fill="#A57939"/>
<path d="M114.967 57.2667L119.088 47.3546L138.666 55.4939L134.58 65.322" fill="#EA5A47"/>
<path d="M111.064 68.3869L115.837 56.9081L134.212 64.5473L129.48 75.9288" fill="#D0CFCE"/>
<path d="M101.914 108.347L107.859 110.819L102.681 115.597L101.914 108.347Z" fill="#2E2E2E"/>
<path d="M54.2588 71.6362L101.875 51.9855" stroke="#2E2E2E" stroke-width="3" stroke-miterlimit="10" stroke-linecap="round" stroke-linejoin="round"/>
<path d="M60.082 85.7446L105.229 67.1128" stroke="#2E2E2E" stroke-width="3" stroke-miterlimit="10" stroke-linecap="round" stroke-linejoin="round"/>
<path d="M65.9043 99.853L96.0782 87.4005" stroke="#2E2E2E" stroke-width="3" stroke-miterlimit="10" stroke-linecap="round" stroke-linejoin="round"/>
<path d="M71.7266 113.961L93.2541 105.077" stroke="#2E2E2E" stroke-width="3" stroke-miterlimit="10" stroke-linecap="round" stroke-linejoin="round"/>
<path d="M77.5488 128.07L95.4419 120.686" stroke="#2E2E2E" stroke-width="3" stroke-miterlimit="10" stroke-linecap="round" stroke-linejoin="round"/>
<path d="M101.914 108.347L107.859 110.819L102.681 115.597L101.914 108.347Z" fill="#2E2E2E"/>
<path d="M108.284 110.672L116.842 103.08L132.989 64.2402L116.909 57.5554L100.762 96.3959L101.409 107.834L108.284 110.672Z" stroke="#2E2E2E" stroke-width="3" stroke-miterlimit="10" stroke-linecap="round" stroke-linejoin="round"/>
<path d="M119.596 51.0939L121.207 47.2187L137.287 53.9036L135.596 57.969" stroke="#2E2E2E" stroke-width="3" stroke-miterlimit="10" stroke-linecap="round" stroke-linejoin="round"/>
<path d="M101.152 95.4573L117.232 102.142" stroke="#2E2E2E" stroke-width="3" stroke-miterlimit="10" stroke-linecap="round" stroke-linejoin="round"/>
<path d="M101.406 107.807L101.987 116.131L108.306 110.649" stroke="#2E2E2E" stroke-width="3" stroke-miterlimit="10" stroke-linecap="round" stroke-linejoin="round"/>
<path d="M112.852 68.677L128.303 75.1006" stroke="#2E2E2E" stroke-width="3" stroke-miterlimit="10" stroke-linecap="round" stroke-linejoin="round"/>
<path d="M130.181 90.5665L141.569 118.161L72.7901 146.545L37.8555 61.8945L106.634 33.5102L112.788 48.4226" stroke="#2E2E2E" stroke-width="3" stroke-miterlimit="10" stroke-linecap="round" stroke-linejoin="round"/>
</g>
<defs>
<clipPath id="clip0_1_5850">
<rect width="137.364" height="137.364" fill="white" transform="translate(0.428711 52.8311) rotate(-22.4255)"/>
</clipPath>
</defs>
</svg>
