<svg width="131" height="121" viewBox="0 0 131 121" fill="none" xmlns="http://www.w3.org/2000/svg">
<path d="M90.2691 5.02L5.60296 53.902C4.16808 54.7305 3.67646 56.5652 4.50488 58.0001L34.602 110.13C35.4305 111.565 37.2652 112.056 38.7001 111.228L72.2103 91.8809C72.8993 91.4831 73.7182 91.3753 74.4867 91.5812L85.0228 94.4043C85.2896 94.4758 85.5637 94.3175 85.6352 94.0508L88.4583 83.5147C88.6643 82.7461 89.1671 82.0909 89.8561 81.6931L123.366 62.346C124.801 61.5175 125.293 59.6828 124.464 58.2479L94.3672 6.11808C93.5388 4.6832 91.704 4.19157 90.2691 5.02Z" fill="#4B91FF" stroke="#2E2E2E" stroke-width="3" stroke-linecap="round"/>
<path d="M112.565 54.5434L84.0147 5.0929C83.3244 3.89717 81.7954 3.48748 80.5997 4.17784L54.586 19.1968C53.7822 19.6609 53.1956 20.4254 52.9553 21.322L49.8746 32.8193L38.3773 29.7386C37.4807 29.4984 36.5253 29.6242 35.7214 30.0883L9.70782 45.1073C8.51209 45.7976 8.1024 47.3266 8.79276 48.5223L37.343 97.9728C38.0334 99.1686 39.5624 99.5782 40.7581 98.8879L68.7907 82.7033C69.1576 82.4914 69.5971 82.4446 70.0004 82.5745L78.4617 85.2992C79.5878 85.6618 80.7809 84.973 81.0299 83.8164L82.9009 75.1264C82.9901 74.7122 83.2504 74.355 83.6173 74.1431L111.65 57.9585C112.846 57.2681 113.255 55.7391 112.565 54.5434Z" fill="white" stroke="#2E2E2E" stroke-width="3" stroke-linecap="round"/>
<mask id="mask0_1_6115" style="mask-type:alpha" maskUnits="userSpaceOnUse" x="9" y="5" width="103" height="93">
<path d="M111.266 55.2934L82.7157 5.8429C82.4395 5.36461 81.8279 5.20073 81.3497 5.47688L55.336 20.4958C54.8767 20.7611 54.5415 21.1979 54.4042 21.7103L51.0647 34.1735C50.9932 34.4402 50.719 34.5985 50.4523 34.527L37.9891 31.1875C37.4767 31.0502 36.9308 31.1221 36.4714 31.3873L10.4578 46.4063C9.97953 46.6824 9.81565 47.294 10.0918 47.7723L38.6421 97.2228C38.9182 97.7011 39.5298 97.865 40.0081 97.5888L68.0407 81.4042C68.7746 80.9805 69.6535 80.8869 70.4602 81.1467L78.9215 83.8714C79.203 83.962 79.5013 83.7898 79.5635 83.5007L81.4345 74.8107C81.6129 73.9822 82.1334 73.2678 82.8673 72.844L110.9 56.6594C111.378 56.3833 111.542 55.7717 111.266 55.2934Z" fill="white"/>
</mask>
<g mask="url(#mask0_1_6115)">
<path d="M53.9812 20.5266L81.8893 4.41377L112.206 56.9234L83.3828 73.5643L79.4131 85.0172L49.6053 33.3869L53.9812 20.5266Z" fill="#E5E2D7"/>
</g>
<rect x="20.8721" y="52.4546" width="29.6267" height="6.70871" transform="rotate(-30 20.8721 52.4546)" fill="#ECECEC"/>
<rect x="27.1074" y="63.2541" width="29.6267" height="6.70871" transform="rotate(-30 27.1074 63.2541)" fill="#ECECEC"/>
<rect x="33.3428" y="74.0549" width="29.6267" height="6.70871" transform="rotate(-30 33.3428 74.0549)" fill="#ECECEC"/>
<rect x="39.5791" y="84.8556" width="29.6267" height="6.70871" transform="rotate(-30 39.5791 84.8556)" fill="#ECECEC"/>
<rect x="55.3916" y="32.5243" width="29.6267" height="6.70871" transform="rotate(-30 55.3916 32.5243)" fill="#CAC8BE"/>
<rect x="61.626" y="43.3247" width="29.6267" height="6.70871" transform="rotate(-30 61.626 43.3247)" fill="#CAC8BE"/>
<rect x="67.8613" y="54.1254" width="29.6267" height="6.70871" transform="rotate(-30 67.8613 54.1254)" fill="#CAC8BE"/>
<rect x="74.0977" y="64.9261" width="29.6267" height="6.70871" transform="rotate(-30 74.0977 64.9261)" fill="#CAC8BE"/>
</svg>
