<svg width="93" height="93" viewBox="0 0 93 93" fill="none" xmlns="http://www.w3.org/2000/svg">
<g clip-path="url(#clip0_1_6132)">
<path d="M31.0794 54.483C38.8012 52.414 43.3813 44.4675 41.3091 36.7342C39.237 29.0008 31.2973 24.409 23.5755 26.4781C15.8536 28.5472 11.2736 36.4936 13.3457 44.2269C15.4178 51.9603 23.3575 56.5521 31.0794 54.483Z" fill="#FCEA2B" stroke="#FCEA2B" stroke-width="2" stroke-miterlimit="10"/>
<path d="M29.4753 54.9871C27.4575 60.2389 23.6332 63.1661 17.5542 64.795C19.9459 62.0735 21.8392 57.4923 22.1688 54.2012L29.4753 54.9871Z" fill="#FCEA2B"/>
<path d="M67.6376 61.2351C75.3595 59.1661 79.942 51.2289 77.8729 43.507C75.8038 35.7851 67.8667 31.2026 60.1448 33.2717C52.4229 35.3408 47.8404 43.2779 49.9095 50.9998C51.9785 58.7217 59.9157 63.3042 67.6376 61.2351Z" fill="#FCEA2B" stroke="#FCEA2B" stroke-width="2" stroke-miterlimit="10"/>
<path d="M69.2904 60.9113C73.6637 64.4506 78.4393 65.0735 84.5183 63.4446C81.0863 62.2836 77.156 59.2628 75.225 56.5774L69.2904 60.9113Z" fill="#FCEA2B"/>
<path d="M20.7724 44.3862C21.8915 44.0863 22.5556 42.936 22.2558 41.8169C21.9559 40.6978 20.8056 40.0336 19.6865 40.3335C18.5674 40.6334 17.9032 41.7837 18.2031 42.9028C18.503 44.0219 19.6533 44.686 20.7724 44.3862Z" fill="black"/>
<path d="M27.8642 42.4858C28.9833 42.186 29.6474 41.0356 29.3476 39.9165C29.0477 38.7974 27.8974 38.1333 26.7783 38.4332C25.6592 38.733 24.995 39.8833 25.2949 41.0024C25.5948 42.1216 26.7451 42.7857 27.8642 42.4858Z" fill="black"/>
<path d="M34.957 40.5855C36.0761 40.2856 36.7402 39.1353 36.4404 38.0162C36.1405 36.8971 34.9902 36.2329 33.8711 36.5328C32.7519 36.8327 32.0878 37.983 32.3877 39.1021C32.6875 40.2212 33.8379 40.8853 34.957 40.5855Z" fill="black"/>
<path d="M22.1678 54.2012C21.8382 57.4923 19.9449 62.0735 17.5532 64.795C23.6322 63.1661 27.4565 60.2389 29.4743 54.9871" stroke="black" stroke-width="2" stroke-miterlimit="10" stroke-linecap="round" stroke-linejoin="round"/>
<path d="M33.3766 53.8399C39.8191 50.9337 43.3941 43.7078 41.5053 36.6588C39.4062 28.825 31.3541 24.1761 23.5203 26.2751C15.6865 28.3742 11.0376 36.4264 13.1366 44.2602C14.0416 47.6378 16.0533 50.4232 18.6769 52.3311" stroke="black" stroke-width="2" stroke-miterlimit="10" stroke-linecap="round"/>
<path d="M71.5263 47.3794C72.6454 47.0795 73.3096 45.9292 73.0097 44.8101C72.7098 43.691 71.5595 43.0269 70.4404 43.3267C69.3213 43.6266 68.6572 44.7769 68.957 45.896C69.2569 47.0151 70.4072 47.6793 71.5263 47.3794Z" fill="black"/>
<path d="M64.4335 49.2797C65.5527 48.9799 66.2168 47.8296 65.9169 46.7104C65.6171 45.5913 64.4667 44.9272 63.3476 45.2271C62.2285 45.5269 61.5644 46.6772 61.8642 47.7964C62.1641 48.9155 63.3144 49.5796 64.4335 49.2797Z" fill="black"/>
<path d="M57.3417 51.1801C58.4609 50.8802 59.125 49.7299 58.8251 48.6108C58.5253 47.4917 57.3749 46.8275 56.2558 47.1274C55.1367 47.4273 54.4726 48.5776 54.7724 49.6967C55.0723 50.8158 56.2226 51.48 57.3417 51.1801Z" fill="black"/>
<path d="M75.225 56.5774C77.156 59.2628 81.0863 62.2836 84.5183 63.4446C78.4393 65.0735 73.6637 64.4506 69.2904 60.9113" stroke="black" stroke-width="2" stroke-miterlimit="10" stroke-linecap="round" stroke-linejoin="round"/>
<path d="M65.3372 61.869C58.3046 62.5734 51.5957 58.1031 49.7069 51.0541C47.6079 43.2203 52.2568 35.1681 60.0906 33.0691C67.9244 30.97 75.9766 35.6189 78.0756 43.4527C78.9806 46.8303 78.6312 50.2485 77.313 53.2125" stroke="black" stroke-width="2" stroke-miterlimit="10" stroke-linecap="round"/>
</g>
<defs>
<clipPath id="clip0_1_6132">
<rect width="75.5214" height="75.5214" fill="white" transform="translate(0 19.5467) rotate(-15)"/>
</clipPath>
</defs>
</svg>
