<svg width="178" height="103" viewBox="0 0 178 103" fill="none" xmlns="http://www.w3.org/2000/svg">
<path fillRule="evenodd" clipRule="evenodd" d="M90.3349 44.4281L70.3572 77.2537C63.8682 87.9161 71.5433 101.572 84.025 101.572L99.729 101.572C99.7323 101.572 99.7357 101.572 99.739 101.572C112.696 101.564 120.272 86.9604 112.813 76.3625L90.3349 44.4281Z" fill="white"/>
<path d="M84.4678 101.428L149.464 101.428C161.96 101.428 169.633 87.7436 163.115 77.082L130.542 23.8064C124.295 13.589 109.449 13.6042 103.223 23.8343L70.8 77.1099C64.3109 87.7723 71.986 101.428 84.4678 101.428Z" stroke="black" strokeWidth="3"/>
<path d="M55.4075 101.428L127.172 101.428C140.135 101.428 147.717 86.8193 140.256 76.2187L101.696 21.4368C95.0537 12.0005 80.9104 12.4846 74.9291 22.3528L41.7247 77.1347C35.2617 87.7977 42.9387 101.428 55.4075 101.428Z" stroke="black" strokeWidth="3"/>
<path d="M28.4075 100.428L100.172 100.428C113.135 100.428 120.717 85.8193 113.256 75.2187L74.6957 20.4368C68.0537 11.0005 53.9104 11.4845 47.9291 21.3528L14.7247 76.1347C8.26165 86.7977 15.9387 100.428 28.4075 100.428Z" stroke="black" strokeWidth="3"/>
</svg>
