<svg width="158" height="158" viewBox="0 0 158 158" fill="none" xmlns="http://www.w3.org/2000/svg">
<path d="M79 0L81.0949 61.7467L97.9059 2.29559L85.163 62.7494L115.713 9.04897L88.873 64.6965L131.387 19.8676L92.0091 67.4749L144.016 34.1229L94.3892 70.9231L152.866 50.9862L95.875 74.8407L157.424 69.4776L96.38 79L157.424 88.5224L95.875 83.1593L152.866 107.014L94.3892 87.0769L144.016 123.877L92.0091 90.5251L131.387 138.132L88.873 93.3035L115.713 148.951L85.163 95.2506L97.9059 155.704L81.0949 96.2533L79 158L76.9051 96.2533L60.0941 155.704L72.837 95.2506L42.2869 148.951L69.127 93.3035L26.6133 138.132L65.9909 90.5251L13.9843 123.877L63.6108 87.0769L5.13372 107.014L62.125 83.1593L0.575996 88.5224L61.62 79L0.575996 69.4776L62.125 74.8407L5.13372 50.9862L63.6108 70.9231L13.9843 34.1229L65.9909 67.4749L26.6133 19.8676L69.127 64.6965L42.2869 9.04897L72.837 62.7494L60.0941 2.29559L76.9051 61.7467L79 0Z" fill="#2E2E2E"/>
</svg>
