<svg width="153" height="92" viewBox="0 0 153 92" fill="none" xmlns="http://www.w3.org/2000/svg">
<circle cx="46" cy="46" r="45" stroke="black" stroke-width="2"/>
<circle cx="75" cy="46" r="45" stroke="black" stroke-width="2"/>
<circle cx="107" cy="46" r="45" stroke="black" stroke-width="2"/>
<path d="M13.6602 51H10.2183V38.2529H18.8462C19.7739 38.2529 20.5594 38.3488 21.2026 38.5405C21.8521 38.7323 22.3778 39.0044 22.7798 39.3569C23.188 39.7095 23.4818 40.1362 23.6611 40.6372C23.8467 41.132 23.9395 41.6855 23.9395 42.2979C23.9395 42.8359 23.8621 43.306 23.7075 43.708C23.5591 44.11 23.355 44.4564 23.0952 44.7471C22.8416 45.0316 22.5448 45.2728 22.2046 45.4707C21.8644 45.6686 21.5057 45.8325 21.1284 45.9624L25.3032 51H21.2769L17.4175 46.3057H13.6602V51ZM20.4604 42.2793C20.4604 42.0319 20.4264 41.8216 20.3584 41.6484C20.2965 41.4753 20.1852 41.3361 20.0244 41.231C19.8636 41.1196 19.6471 41.0392 19.375 40.9897C19.109 40.9403 18.7751 40.9155 18.373 40.9155H13.6602V43.6431H18.373C18.7751 43.6431 19.109 43.6183 19.375 43.5688C19.6471 43.5194 19.8636 43.4421 20.0244 43.3369C20.1852 43.2256 20.2965 43.0833 20.3584 42.9102C20.4264 42.737 20.4604 42.5267 20.4604 42.2793Z" fill="#2E2E2E"/>
<path d="M41.312 51V38.2529H54.2168V40.9712H44.8467V43.0771H53.7344V45.7954H44.8467V48.2817H54.3467V51H41.312Z" fill="#2E2E2E"/>
<path d="M78.2163 41.0269V51H74.7744V41.0269H69.3657V38.2529H83.6343V41.0269H78.2163Z" fill="#2E2E2E"/>
<path d="M102.66 51H99.2183V38.2529H107.846C108.774 38.2529 109.559 38.3488 110.203 38.5405C110.852 38.7323 111.378 39.0044 111.78 39.3569C112.188 39.7095 112.482 40.1362 112.661 40.6372C112.847 41.132 112.939 41.6855 112.939 42.2979C112.939 42.8359 112.862 43.306 112.708 43.708C112.559 44.11 112.355 44.4564 112.095 44.7471C111.842 45.0316 111.545 45.2728 111.205 45.4707C110.864 45.6686 110.506 45.8325 110.128 45.9624L114.303 51H110.277L106.417 46.3057H102.66V51ZM109.46 42.2793C109.46 42.0319 109.426 41.8216 109.358 41.6484C109.297 41.4753 109.185 41.3361 109.024 41.231C108.864 41.1196 108.647 41.0392 108.375 40.9897C108.109 40.9403 107.775 40.9155 107.373 40.9155H102.66V43.6431H107.373C107.775 43.6431 108.109 43.6183 108.375 43.5688C108.647 43.5194 108.864 43.4421 109.024 43.3369C109.185 43.2256 109.297 43.0833 109.358 42.9102C109.426 42.737 109.46 42.5267 109.46 42.2793Z" fill="#2E2E2E"/>
<path d="M145.674 44.6357C145.674 45.7305 145.473 46.6984 145.071 47.5396C144.669 48.3745 144.094 49.0734 143.346 49.6362C142.597 50.1991 141.688 50.6258 140.618 50.9165C139.554 51.201 138.358 51.3433 137.028 51.3433C135.698 51.3433 134.495 51.201 133.419 50.9165C132.349 50.6258 131.437 50.1991 130.682 49.6362C129.928 49.0734 129.346 48.3745 128.938 47.5396C128.53 46.6984 128.326 45.7305 128.326 44.6357C128.326 43.541 128.53 42.5762 128.938 41.7412C129.346 40.9001 129.928 40.1981 130.682 39.6353C131.437 39.0724 132.349 38.6488 133.419 38.3643C134.495 38.0736 135.698 37.9282 137.028 37.9282C138.358 37.9282 139.554 38.0736 140.618 38.3643C141.688 38.6488 142.597 39.0724 143.346 39.6353C144.094 40.1981 144.669 40.9001 145.071 41.7412C145.473 42.5762 145.674 43.541 145.674 44.6357ZM142.195 44.6357C142.195 44.1595 142.118 43.6864 141.963 43.2163C141.815 42.7401 141.546 42.3133 141.156 41.936C140.773 41.5588 140.247 41.2526 139.579 41.0176C138.911 40.7826 138.061 40.665 137.028 40.665C136.335 40.665 135.726 40.7207 135.2 40.832C134.674 40.9372 134.22 41.0856 133.836 41.2773C133.453 41.4691 133.131 41.6948 132.872 41.9546C132.612 42.2082 132.405 42.4834 132.25 42.7803C132.095 43.071 131.984 43.3771 131.916 43.6987C131.854 44.0142 131.823 44.3265 131.823 44.6357C131.823 44.9512 131.854 45.2697 131.916 45.5913C131.984 45.9129 132.095 46.2222 132.25 46.519C132.405 46.8097 132.612 47.0819 132.872 47.3354C133.131 47.589 133.453 47.8117 133.836 48.0034C134.22 48.189 134.674 48.3374 135.2 48.4487C135.726 48.5539 136.335 48.6064 137.028 48.6064C138.061 48.6064 138.911 48.4889 139.579 48.2539C140.247 48.0189 140.773 47.7127 141.156 47.3354C141.546 46.9582 141.815 46.5345 141.963 46.0645C142.118 45.5882 142.195 45.112 142.195 44.6357Z" fill="#2E2E2E"/>
</svg>
