<svg width="93" height="130" viewBox="0 0 93 130" fill="none" xmlns="http://www.w3.org/2000/svg">
<path d="M91.5 47.487V127.513H1.5V47.487C1.5 22.6342 21.6472 2.48701 46.5 2.48701C71.3528 2.48701 91.5 22.6342 91.5 47.487Z" stroke="#2E2E2E" strokeWidth="3"/>
<path d="M79.4223 49.7727V111.682H13.5781V49.7728C13.5781 31.5904 28.3178 16.8506 46.5002 16.8506C64.6826 16.8506 79.4223 31.5904 79.4223 49.7727Z" fill="#2E2E2E" stroke="#2E2E2E" strokeWidth="3"/>
<circle cx="55.5592" cy="44.3377" r="13.2857" fill="#C4C4C4"/>
<mask id="mask0_119_1087" style="mask-type:alpha" maskUnits="userSpaceOnUse" x="12" y="15" width="69" height="100">
<path d="M79.9223 49.7727V113.987H13.0781V49.7727C13.0781 31.3142 28.0417 16.3506 46.5002 16.3506C64.9587 16.3506 79.9223 31.3142 79.9223 49.7727Z" fill="#2E2E2E" stroke="#2E2E2E" strokeWidth="2"/>
</mask>
<g mask="url(#mask0_119_1087)">
<ellipse cx="25.3641" cy="108.837" rx="22.9481" ry="23.3715" fill="white"/>
<ellipse cx="65.2213" cy="111.297" rx="35.026" ry="35.6723" fill="white"/>
</g>
<path d="M80.2406 50.8016V114.236H12.7578V50.8016C12.7578 32.0291 27.8708 16.8226 46.4992 16.8226C65.1276 16.8226 80.2406 32.0291 80.2406 50.8016Z" stroke="#2E2E2E" strokeWidth="2"/>
</svg>
