<svg width="106" height="106" viewBox="0 0 106 106" fill="none" xmlns="http://www.w3.org/2000/svg">
<rect y="0.41304" width="106" height="102" fill="#2E2E2E"/>
<rect x="54" y="13.413" width="39" height="38" fill="white"/>
<rect x="73" y="20.413" width="12.3158" height="12" rx="6" fill="#2E2E2E"/>
<path d="M14.0931 77.7235C14.2167 79.9015 14.697 81.6705 15.534 83.0306C16.3804 84.3811 17.6739 85.0564 19.4144 85.0564C20.0992 85.0564 20.7126 84.9375 21.2548 84.6997C21.8064 84.4524 22.2391 84.0815 22.553 83.587C22.8764 83.0924 23.038 82.4932 23.038 81.7894C23.038 81.0285 22.8573 80.3485 22.4959 79.7493C22.144 79.1406 21.6637 78.589 21.055 78.0944C20.4558 77.5903 19.6522 77.0102 18.644 76.3539C17.4647 75.5931 16.5279 74.9321 15.8336 74.3709C15.1488 73.8098 14.5781 73.144 14.1216 72.3736C13.6746 71.6033 13.4511 70.7092 13.4511 69.6916C13.4511 68.5122 13.7507 67.5231 14.3499 66.7242C14.949 65.9158 15.7432 65.3166 16.7323 64.9266C17.7215 64.5367 18.8105 64.3417 19.9993 64.3417C20.7031 64.3417 21.3118 64.394 21.8254 64.4986C22.3485 64.6033 22.7813 64.7364 23.1236 64.8981C23.4755 65.0503 23.856 65.2452 24.2649 65.483C24.731 65.7588 25.0591 65.8967 25.2493 65.8967C25.43 65.8967 25.5679 65.7969 25.663 65.5971C25.7582 65.3879 25.8342 65.0598 25.8913 64.6128H26.5618C26.4667 65.9158 26.4192 68.1365 26.4192 71.2751H25.7486C25.6821 70.2194 25.4443 69.216 25.0353 68.2649C24.6359 67.3139 24.07 66.5435 23.3376 65.9538C22.6148 65.3546 21.7636 65.055 20.784 65.055C20.1658 65.055 19.6094 65.1739 19.1148 65.4117C18.6298 65.6495 18.2493 65.9966 17.9735 66.4531C17.7072 66.9001 17.574 67.4232 17.574 68.0224C17.574 68.9925 17.8641 69.7867 18.4443 70.4049C19.0245 71.0231 19.7806 71.6508 20.7126 72.288C21.6447 72.9158 22.2724 73.339 22.5958 73.5577C23.7371 74.3186 24.6406 74.9796 25.3064 75.5408C25.9721 76.1019 26.5143 76.7581 26.9327 77.5095C27.3512 78.2609 27.5605 79.1311 27.5605 80.1202C27.5605 81.3662 27.2371 82.4171 26.5904 83.2731C25.9436 84.1291 25.0734 84.7711 23.9796 85.199C22.8859 85.6175 21.6637 85.8268 20.3132 85.8268C19.2194 85.8268 18.3111 85.7269 17.5883 85.5272C16.875 85.337 16.214 85.0754 15.6053 84.7425C15.1868 84.4667 14.8587 84.3288 14.6209 84.3288C14.4402 84.3288 14.3023 84.4334 14.2072 84.6427C14.1121 84.8424 14.036 85.1658 13.9789 85.6128H13.3084C13.3845 84.3954 13.4226 81.7656 13.4226 77.7235H14.0931ZM29.6005 71.9171C29.6671 71.2704 29.7004 70.5285 29.7004 69.6916C29.7004 68.3601 29.6291 66.7052 29.4864 64.7269C31.2649 64.784 34.2751 64.8125 38.517 64.8125C42.7588 64.8125 45.7595 64.784 47.519 64.7269C47.3764 66.7052 47.305 68.3601 47.305 69.6916C47.305 70.5285 47.3383 71.2704 47.4049 71.9171H46.7344C46.411 70.2908 46.0163 69.0068 45.5503 68.0652C45.0842 67.1141 44.5231 66.4341 43.8668 66.0251C43.2201 65.6067 42.4307 65.3974 41.4986 65.3974H40.8281V82.089C40.8281 82.8974 40.909 83.4871 41.0707 83.858C41.2418 84.2289 41.5367 84.481 41.9552 84.6141C42.3832 84.7473 43.0489 84.8186 43.9524 84.8281V85.413C41.4986 85.356 39.6488 85.3274 38.4029 85.3274C37.176 85.3274 35.3927 85.356 33.053 85.413V84.8281C33.966 84.8186 34.6318 84.7473 35.0503 84.6141C35.4783 84.481 35.7731 84.2289 35.9348 83.858C36.0965 83.4871 36.1773 82.8974 36.1773 82.089V65.3974H35.5353C34.5938 65.3974 33.7948 65.6019 33.1386 66.0109C32.4918 66.4198 31.9355 67.0999 31.4694 68.0509C31.0034 68.9925 30.6039 70.2812 30.2711 71.9171H29.6005Z" fill="white"/>
</svg>
