<svg width="144" height="120" viewBox="0 0 144 120" fill="none" xmlns="http://www.w3.org/2000/svg">
<circle cx="60" cy="60" r="60" fill="#2E2E2E"/>
<circle cx="84" cy="60" r="58.5" fill="white" stroke="#2E2E2E" stroke-width="3"/>
<path d="M85.5 2V117.5" stroke="#2E2E2E" stroke-width="3"/>
<path d="M85 21H128" stroke="#2E2E2E" stroke-width="2"/>
<path d="M85 29H134" stroke="#2E2E2E" stroke-width="2"/>
<path d="M93 38H139" stroke="#2E2E2E" stroke-width="2"/>
<path d="M85 13H118" stroke="#2E2E2E" stroke-width="2"/>
<path d="M86 38H108.923C115.528 38 117.498 46.986 111.5 49.75V49.75C105.502 52.514 107.472 61.5 114.077 61.5H142" stroke="#2E2E2E" stroke-width="2"/>
<path d="M85 80H140" stroke="#2E2E2E" stroke-width="2"/>
<path d="M87 98H129" stroke="#2E2E2E" stroke-width="2"/>
<path d="M87 89H134" stroke="#2E2E2E" stroke-width="2"/>
<path d="M87 71H141" stroke="#2E2E2E" stroke-width="2"/>
<path d="M87 108H118" stroke="#2E2E2E" stroke-width="2"/>
<path d="M68.904 92.0712C69.044 91.4738 69.3333 91.0025 69.772 90.6572C70.2107 90.3025 70.7193 90.1252 71.298 90.1252C72.1473 90.1252 72.81 90.4098 73.286 90.9792C73.762 91.5392 74 92.3465 74 93.4012L74 98.0072L64.102 98.0072L64.102 93.5132C64.102 92.5052 64.3213 91.7258 64.76 91.1752C65.1987 90.6245 65.824 90.3492 66.636 90.3492C67.2333 90.3492 67.7327 90.5078 68.134 90.8252C68.526 91.1425 68.7827 91.5578 68.904 92.0712ZM68.148 95.6132L68.148 94.0452C68.148 93.2145 67.7933 92.7992 67.084 92.7992C66.3747 92.7992 66.02 93.2238 66.02 94.0732L66.02 95.6132L68.148 95.6132ZM72.054 93.9052C72.054 93.0185 71.69 92.5752 70.962 92.5752C70.6073 92.5752 70.332 92.6918 70.136 92.9252C69.9307 93.1585 69.828 93.4898 69.828 93.9192L69.828 95.6132L72.054 95.6132L72.054 93.9052ZM74 76.3587L70.262 78.5007L70.262 79.0467L74 79.0467L74 81.4407L64.102 81.4407L64.102 77.3527C64.102 76.5687 64.2373 75.906 64.508 75.3647C64.7787 74.8233 65.152 74.4173 65.628 74.1467C66.0947 73.876 66.6313 73.7407 67.238 73.7407C67.9567 73.7407 68.568 73.9413 69.072 74.3427C69.576 74.7347 69.9213 75.3087 70.108 76.0647L74 73.7127L74 76.3587ZM68.624 79.0467L68.624 77.5627C68.624 77.0867 68.5213 76.7367 68.316 76.5127C68.1013 76.2887 67.7887 76.1767 67.378 76.1767C66.986 76.1767 66.678 76.2933 66.454 76.5267C66.23 76.7507 66.118 77.096 66.118 77.5627L66.118 79.0467L68.624 79.0467ZM72.194 58.9883L72.194 62.6983L74 63.3143L74 65.8343L64.172 62.2083L64.172 59.4503L74 55.8243L74 58.3723L72.194 58.9883ZM70.374 59.6043L66.734 60.8363L70.374 62.0823L70.374 59.6043ZM74 38.6817L74 41.0757L67.924 45.0797L74 45.0797L74 47.4737L64.102 47.4737L64.102 45.0797L70.234 41.0757L64.102 41.0757L64.102 38.6817L74 38.6817ZM69.03 20.7044C70.0007 20.7044 70.864 20.9144 71.62 21.3344C72.3667 21.7451 72.95 22.3424 73.37 23.1264C73.79 23.9011 74 24.8158 74 25.8704L74 29.6084L64.102 29.6084L64.102 25.8704C64.102 24.8064 64.3073 23.8871 64.718 23.1124C65.1287 22.3378 65.7073 21.7451 66.454 21.3344C67.2007 20.9144 68.0593 20.7044 69.03 20.7044ZM71.858 26.0804C71.858 25.1471 71.6107 24.4238 71.116 23.9104C70.6213 23.3878 69.926 23.1264 69.03 23.1264C68.134 23.1264 67.4387 23.3878 66.944 23.9104C66.4493 24.4238 66.202 25.1471 66.202 26.0804L66.202 27.2144L71.858 27.2144L71.858 26.0804Z" fill="#2E2E2E"/>
<path d="M55 74.1399L55 76.5339L48.924 80.5379L55 80.5379L55 82.9319L45.102 82.9319L45.102 80.5379L51.234 76.5339L45.102 76.5339L45.102 74.1399L55 74.1399ZM47.006 62.6726L49.078 62.6726L49.078 59.3266L50.884 59.3266L50.884 62.6726L53.082 62.6726L53.082 58.9066L55 58.9066L55 65.0666L45.102 65.0666L45.102 58.9066L47.006 58.9066L47.006 62.6726ZM45.102 36.673L55 39.039L55 42.007L48.378 43.589L55 45.185L55 48.153L45.102 50.519L45.102 47.915L52.27 46.641L45.102 44.905L45.102 42.287L52.27 40.551L45.102 39.263L45.102 36.673Z" fill="#2E2E2E"/>
</svg>
