<svg width="66" height="61" viewBox="0 0 66 61" fill="none" xmlns="http://www.w3.org/2000/svg">
<path d="M57.649 6.70897C50.389 1.81897 40.539 3.72897 35.649 10.989L32.449 15.729L27.709 12.529C20.449 7.63897 10.599 9.54897 5.70897 16.809C0.818969 24.069 2.72897 33.919 9.98897 38.809L14.729 42.009L41.009 59.729L58.729 33.449L61.929 28.709C66.819 21.459 64.909 11.609 57.649 6.70897Z" fill="black" stroke="black" strokeWidth="2" stroke-miterlimit="10" stroke-linecap="round" stroke-linejoin="round"/>
<path d="M55.649 3.70897C48.389 -1.18103 38.539 0.728969 33.649 7.98897L30.449 12.729L25.709 9.52897C18.449 4.63897 8.59897 6.54897 3.70897 13.809C-1.18103 21.069 0.728969 30.919 7.98897 35.809L12.729 39.009L39.009 56.729L56.729 30.449L59.929 25.709C64.819 18.459 62.909 8.60897 55.649 3.70897Z" fill="#F95C46" stroke="black" strokeWidth="2" stroke-miterlimit="10" stroke-linecap="round" stroke-linejoin="round"/>
</svg>
