<svg width="200" height="104" viewBox="0 0 200 104" fill="none" xmlns="http://www.w3.org/2000/svg">
<path d="M189.364 41.9421C190.004 45.4697 188.535 49.4548 184.692 53.7499C180.864 58.0277 174.879 62.3757 167.095 66.5124C151.546 74.7768 129.188 82.0055 103.715 86.1747C78.2424 90.3439 54.6267 90.6399 37.0622 87.7954C28.2703 86.3716 21.0981 84.1772 15.9841 81.363C10.8493 78.5373 8.06069 75.2491 7.42081 71.7215C6.78094 68.1938 8.25024 64.2087 12.0934 59.9136C15.921 55.6359 21.9065 51.2879 29.6898 47.1511C45.2393 38.8868 67.5975 31.6581 93.0701 27.4889C118.543 23.3197 142.158 23.0236 159.723 25.8681C168.515 27.2919 175.687 29.4863 180.801 32.3006C185.936 35.1262 188.724 38.4144 189.364 41.9421Z" fill="#FF8DC4" stroke="#2E2E2E" strokeWidth="3.60126"/>
<path d="M192.241 31.4054C192.881 34.9331 191.412 38.9182 187.569 43.2133C183.741 47.4911 177.756 51.839 169.972 55.9758C154.423 64.2402 132.065 71.4688 106.592 75.638C81.1194 79.8072 57.5037 80.1033 39.9391 77.2588C31.1472 75.835 23.975 73.6406 18.861 70.8264C13.7262 68.0007 10.9376 64.7125 10.2978 61.1848C9.65789 57.6572 11.1272 53.6721 14.9704 49.377C18.7979 45.0992 24.7834 40.7513 32.5667 36.6145C48.1163 28.3501 70.4745 21.1215 95.9471 16.9523C121.42 12.7831 145.035 12.487 162.6 15.3315C171.392 16.7553 178.564 18.9497 183.678 21.7639C188.813 24.5896 191.601 27.8778 192.241 31.4054Z" fill="#A2ABFF" stroke="#2E2E2E" strokeWidth="3.60126"/>
<path d="M65.797 50.2512C65.4406 50.1521 64.976 50.051 64.4031 49.9479C63.8303 49.8448 63.1891 49.7669 62.4796 49.7143C61.7684 49.6533 61.0056 49.6361 60.1911 49.6625C59.375 49.6807 58.5504 49.7648 57.7175 49.915C57.0512 50.0351 56.4847 50.1587 56.0183 50.2858C55.5601 50.4114 55.1753 50.5367 54.8637 50.6617C54.5604 50.7851 54.3221 50.9098 54.1488 51.0356C53.9821 51.1516 53.858 51.2643 53.7763 51.3736C53.6945 51.4829 53.6461 51.5862 53.6311 51.6835C53.6243 51.7793 53.6284 51.8646 53.6433 51.9393C53.6931 52.1883 53.862 52.3857 54.15 52.5315C54.4363 52.6691 54.811 52.7735 55.274 52.8448C55.7353 52.9078 56.2666 52.9539 56.8678 52.9831C57.4674 53.0039 58.102 53.0271 58.7715 53.0526C59.4477 53.0683 60.1439 53.0975 60.8601 53.1404C61.5829 53.1734 62.2866 53.24 62.971 53.3402C63.6638 53.4389 64.3266 53.5816 64.9594 53.7685C65.5905 53.9471 66.1607 54.1882 66.6701 54.4919C67.1795 54.7956 67.6089 55.1739 67.9583 55.6268C68.3076 56.0798 68.5461 56.6257 68.6738 57.2648C68.838 58.0865 68.8332 58.8182 68.6594 59.46C68.4856 60.1018 68.1936 60.6704 67.7834 61.1657C67.3816 61.6594 66.8849 62.0886 66.2932 62.4532C65.7 62.8095 65.0626 63.1179 64.3812 63.3783C63.708 63.6373 63.0133 63.8528 62.2969 64.0249C61.5889 64.1956 60.9101 64.3395 60.2604 64.4566C58.5612 64.7629 56.9588 64.9056 55.4531 64.8847C53.9574 64.8706 52.6142 64.7559 51.4235 64.5407L50.6077 60.4573C51.8748 60.8823 53.2729 61.1419 54.8018 61.236C56.339 61.3286 57.9406 61.2247 59.6065 60.9244C60.5893 60.7472 61.379 60.5533 61.9754 60.3426C62.5786 60.1221 63.0393 59.9014 63.3576 59.6807C63.6743 59.4516 63.876 59.2304 63.9628 59.017C64.0496 58.8035 64.0756 58.6097 64.0408 58.4354C63.9861 58.1615 63.8139 57.9475 63.5242 57.7934C63.2329 57.6309 62.8557 57.514 62.3927 57.4427C61.9281 57.3631 61.396 57.3129 60.7964 57.292C60.1952 57.2628 59.5573 57.2446 58.8827 57.2372C58.2148 57.22 57.5245 57.1983 56.8116 57.172C56.0988 57.1458 55.3976 57.0916 54.7081 57.0096C54.0253 56.9177 53.37 56.7908 52.7422 56.6288C52.1128 56.4585 51.545 56.2299 51.039 55.9428C50.5312 55.6474 50.1043 55.2815 49.7583 54.8452C49.4106 54.4006 49.1729 53.8587 49.0452 53.2197C48.8943 52.4644 48.8974 51.7889 49.0545 51.193C49.2116 50.5972 49.4769 50.0679 49.8504 49.605C50.2306 49.1323 50.6923 48.7224 51.2356 48.3751C51.7872 48.0263 52.3787 47.7262 53.0102 47.4747C53.6417 47.2233 54.2898 47.0119 54.9545 46.8405C55.6193 46.669 56.2556 46.5285 56.8637 46.4189C57.53 46.2988 58.2196 46.2088 58.9326 46.1491C59.6538 46.0878 60.3684 46.0579 61.0763 46.0593C61.7825 46.0523 62.4678 46.0706 63.1324 46.1142C63.8052 46.1563 64.4298 46.2157 65.006 46.2923L65.797 50.2512ZM81.0205 46.3717L83.6944 59.7546L79.0591 60.5903L76.3853 47.2073L69.1014 48.5205L68.3577 44.7982L87.5733 41.3339L88.317 45.0563L81.0205 46.3717ZM106.211 52.3418L96.641 54.0672L95.676 57.5946L90.5035 58.5271L96.0691 39.8023L101.242 38.8698L113.642 54.3556L108.47 55.2881L106.211 52.3418ZM97.6361 50.4312L103.908 49.3005L99.526 43.5643L97.6361 50.4312ZM121.089 53.0132L116.453 53.8488L113.036 36.7435L124.655 34.6488C125.905 34.4235 126.988 34.3614 127.906 34.4626C128.832 34.5622 129.613 34.7997 130.249 35.1752C130.893 35.5492 131.403 36.0505 131.779 36.6792C132.161 37.2981 132.435 38.0184 132.599 38.8401C132.743 39.5621 132.765 40.2116 132.664 40.7887C132.572 41.3642 132.39 41.8785 132.118 42.3316C131.853 42.775 131.518 43.1707 131.113 43.5189C130.708 43.8671 130.269 44.1741 129.796 44.44L136.768 50.1864L131.346 51.1639L124.89 45.8016L119.83 46.7138L121.089 53.0132ZM127.909 39.6598C127.842 39.3278 127.74 39.0539 127.602 38.838C127.472 38.6207 127.285 38.461 127.04 38.3589C126.794 38.2486 126.481 38.1932 126.101 38.1929C125.73 38.1911 125.273 38.239 124.732 38.3366L118.385 39.4808L119.116 43.1409L125.463 41.9967C126.004 41.899 126.448 41.7848 126.793 41.6538C127.146 41.5213 127.417 41.365 127.605 41.1849C127.792 40.9965 127.903 40.7785 127.94 40.5311C127.985 40.2822 127.975 39.9918 127.909 39.6598ZM147.038 34.4699L149.712 47.8529L145.077 48.6885L142.403 35.3055L135.119 36.6187L134.375 32.8964L153.591 29.4321L154.335 33.1545L147.038 34.4699Z" fill="#2E2E2E"/>
</svg>
